<?xml version="1.0" standalone="no"?>
<!DOCTYPE svg PUBLIC "-//W3C//DTD SVG 20010904//EN"
 "http://www.w3.org/TR/2001/REC-SVG-20010904/DTD/svg10.dtd">
<svg version="1.0" xmlns="http://www.w3.org/2000/svg"
 width="1024.000000pt" height="1024.000000pt" viewBox="0 0 1024.000000 1024.000000"
 preserveAspectRatio="xMidYMid meet">

<g transform="translate(0.000000,1024.000000) scale(0.100000,-0.100000)"
fill="#000000" stroke="none">
<path d="M4806 8473 c-4 -4 -47 -11 -94 -15 -165 -14 -207 -20 -216 -29 -6 -5
-20 -9 -33 -9 -28 0 -91 -34 -122 -67 -32 -34 -35 -135 -5 -179 11 -16 25 -40
32 -54 12 -24 104 -152 139 -195 9 -10 22 -30 29 -44 11 -21 11 -28 -3 -43 -9
-10 -22 -18 -30 -18 -7 0 -13 -4 -13 -10 0 -5 -11 -10 -24 -10 -14 0 -28 -4
-31 -10 -3 -5 -17 -10 -31 -10 -13 0 -24 -4 -24 -10 0 -5 -6 -10 -13 -10 -18
0 -67 -24 -67 -32 0 -5 -9 -8 -20 -8 -11 0 -20 -4 -20 -10 0 -5 -9 -10 -20
-10 -11 0 -20 -4 -20 -10 0 -5 -9 -10 -19 -10 -11 0 -21 -3 -23 -7 -4 -10 -57
-42 -80 -50 -10 -3 -18 -9 -18 -14 0 -5 -9 -9 -20 -9 -11 0 -20 -4 -20 -8 0
-5 -12 -15 -27 -23 -16 -8 -30 -16 -33 -19 -16 -18 -70 -50 -84 -50 -9 0 -16
-4 -16 -10 0 -5 -6 -10 -13 -10 -7 0 -23 -9 -35 -20 -12 -11 -25 -20 -31 -20
-5 0 -22 -13 -38 -30 -15 -16 -31 -30 -35 -30 -9 0 -164 -116 -233 -173 -118
-99 -333 -307 -410 -397 -17 -19 -42 -43 -56 -52 l-26 -17 -167 174 c-230 240
-400 374 -607 476 -54 27 -102 49 -108 49 -6 0 -20 5 -31 10 -11 6 -29 15 -40
20 -11 6 -29 10 -39 10 -11 0 -23 5 -26 10 -3 6 -19 10 -35 10 -16 0 -32 5
-35 10 -9 15 -210 13 -238 -2 -50 -28 -57 -40 -57 -90 0 -26 4 -57 10 -68 5
-11 15 -29 20 -40 16 -32 35 -65 40 -70 6 -6 27 -43 54 -95 12 -22 23 -42 26
-45 6 -6 36 -69 69 -142 12 -27 30 -69 42 -95 12 -27 24 -57 29 -68 4 -11 17
-40 29 -63 11 -24 21 -50 21 -58 0 -8 4 -22 9 -32 15 -29 29 -65 42 -107 7
-22 17 -44 21 -49 4 -6 8 -22 8 -37 0 -15 4 -30 9 -33 16 -10 23 -79 28 -263
2 -123 0 -183 -7 -183 -5 0 -10 -20 -10 -45 0 -25 -4 -45 -10 -45 -5 0 -10
-18 -10 -40 0 -22 -4 -40 -10 -40 -5 0 -10 -13 -10 -30 0 -16 -4 -30 -10 -30
-5 0 -10 -13 -10 -29 0 -17 -4 -33 -10 -36 -5 -3 -10 -15 -10 -26 0 -10 -5
-28 -10 -39 -5 -11 -14 -29 -20 -40 -5 -11 -10 -27 -10 -35 0 -8 -4 -15 -10
-15 -5 0 -10 -6 -10 -13 0 -16 -82 -181 -102 -205 -8 -9 -20 -30 -28 -47 -8
-16 -17 -32 -20 -35 -3 -3 -10 -14 -16 -25 -27 -50 -40 -70 -57 -89 -9 -11
-17 -25 -17 -32 0 -7 -3 -14 -7 -16 -21 -9 -54 -98 -55 -147 0 -29 2 -55 5
-58 3 -2 23 -9 44 -14 180 -42 481 52 764 239 151 99 222 161 406 350 l161
166 134 -135 c138 -139 297 -281 407 -362 236 -176 782 -466 971 -517 31 -8
40 -15 36 -26 -3 -9 -6 -23 -6 -32 0 -9 -22 -39 -50 -67 -27 -27 -49 -54 -50
-58 0 -4 -11 -19 -24 -32 -14 -14 -37 -42 -53 -62 -15 -21 -31 -40 -34 -43
-22 -17 -49 -86 -49 -124 0 -36 5 -49 29 -68 65 -55 225 -78 546 -78 245 0
345 10 573 56 235 47 404 105 613 209 139 70 251 142 344 221 65 56 79 62 195
97 447 135 825 344 1184 655 237 206 418 405 631 697 169 232 197 299 158 373
-27 49 -166 249 -280 401 -113 151 -381 431 -536 558 -252 208 -459 340 -689
437 -62 26 -101 43 -148 63 -25 11 -65 25 -90 32 -25 7 -53 17 -62 22 -10 5
-27 9 -38 9 -11 0 -28 4 -38 9 -9 5 -44 17 -77 26 -54 16 -71 28 -165 120 -97
94 -214 185 -239 185 -6 0 -11 3 -11 8 0 4 -10 12 -23 18 -12 7 -58 30 -102
53 -44 22 -88 41 -97 41 -9 0 -19 4 -22 8 -4 7 -51 23 -182 63 -17 5 -40 9
-52 9 -11 0 -23 4 -26 9 -3 5 -20 11 -38 14 -18 3 -53 11 -78 17 -111 28 -183
41 -330 61 -99 14 -413 22 -424 12z m1161 -469 c-3 -3 -12 -4 -19 -1 -8 3 -5
6 6 6 11 1 17 -2 13 -5z m-26 -701 c13 -16 12 -17 -3 -4 -10 7 -18 15 -18 17
0 8 8 3 21 -13z m-2111 -137 c0 -2 -8 -10 -17 -17 -16 -13 -17 -12 -4 4 13 16
21 21 21 13z m3761 -93 c13 -16 12 -17 -3 -4 -10 7 -18 15 -18 17 0 8 8 3 21
-13z m69 -58 c13 -14 21 -25 18 -25 -2 0 -15 11 -28 25 -13 14 -21 25 -18 25
2 0 15 -11 28 -25z m-5299 -2 c13 -16 12 -17 -3 -4 -10 7 -18 15 -18 17 0 8 8
3 21 -13z m1299 13 c0 -2 -8 -10 -17 -17 -16 -13 -17 -12 -4 4 13 16 21 21 21
13z m-50 -39 c0 -2 -15 -16 -32 -33 l-33 -29 29 33 c28 30 36 37 36 29z
m-1100 -102 c13 -14 21 -25 18 -25 -2 0 -15 11 -28 25 -13 14 -21 25 -18 25 2
0 15 -11 28 -25z m70 -70 c19 -19 32 -35 29 -35 -3 0 -20 16 -39 35 -19 19
-32 35 -29 35 3 0 20 -16 39 -35z m5261 18 c13 -16 12 -17 -3 -4 -10 7 -18 15
-18 17 0 8 8 3 21 -13z m-4421 -26 c0 -2 -12 -14 -27 -28 l-28 -24 24 28 c23
25 31 32 31 24z m4491 -44 c13 -16 12 -17 -3 -4 -10 7 -18 15 -18 17 0 8 8 3
21 -13z m-1462 -48 c56 -31 106 -84 139 -150 42 -85 54 -146 59 -311 11 -320
-38 -482 -171 -571 -26 -18 -67 -38 -89 -44 -29 -8 -187 -12 -496 -13 l-453
-1 -24 -28 c-31 -37 -31 -81 1 -112 l24 -25 290 0 289 0 4 -57 c7 -117 -6
-216 -36 -277 -23 -47 -40 -65 -87 -96 -103 -66 -161 -75 -494 -75 -278 0
-292 1 -346 23 -80 32 -133 81 -171 160 l-33 67 0 335 c0 322 1 337 22 382 29
63 96 134 158 166 l50 27 390 5 c378 5 392 6 448 29 173 68 248 208 264 485
l6 118 102 -4 c88 -4 108 -8 154 -33z m1551 -50 c13 -14 21 -25 18 -25 -2 0
-15 11 -28 25 -13 14 -21 25 -18 25 2 0 15 -11 28 -25z m-4710 2 c0 -2 -17
-19 -37 -38 l-38 -34 34 38 c33 34 41 42 41 34z m-465 -117 c10 -11 16 -20 13
-20 -3 0 -13 9 -23 20 -10 11 -16 20 -13 20 3 0 13 -9 23 -20z m5316 -67 c13
-16 12 -17 -3 -4 -10 7 -18 15 -18 17 0 8 8 3 21 -13z m-5230 -30 c13 -16 12
-17 -3 -4 -10 7 -18 15 -18 17 0 8 8 3 21 -13z m-231 -303 c0 -5 -2 -10 -4
-10 -3 0 -8 5 -11 10 -3 6 -1 10 4 10 6 0 11 -4 11 -10z m5500 -104 c0 -2 -8
-10 -17 -17 -16 -13 -17 -12 -4 4 13 16 21 21 21 13z m-30 -40 c0 -2 -8 -10
-17 -17 -16 -13 -17 -12 -4 4 13 16 21 21 21 13z m-5220 -109 c0 -2 -12 -14
-27 -28 l-28 -24 24 28 c23 25 31 32 31 24z m250 -122 c19 -19 32 -35 29 -35
-3 0 -20 16 -39 35 -19 19 -32 35 -29 35 3 0 20 -16 39 -35z m4760 -28 c0 -2
-15 -16 -32 -33 l-33 -29 29 33 c28 30 36 37 36 29z m-5230 -90 c0 -2 -10 -12
-22 -23 l-23 -19 19 23 c18 21 26 27 26 19z m5150 0 c0 -1 -33 -34 -72 -72
l-73 -70 70 73 c64 67 75 77 75 69z m-4530 -42 c19 -19 32 -35 29 -35 -3 0
-20 16 -39 35 -19 19 -32 35 -29 35 3 0 20 -16 39 -35z m130 -132 c0 -8 -9 0
-50 45 l-45 47 48 -45 c26 -24 47 -45 47 -47z m46 -45 l29 -33 -32 29 c-31 28
-38 36 -30 36 2 0 16 -15 33 -32z m4134 9 c0 -2 -12 -14 -27 -28 l-28 -24 24
28 c23 25 31 32 31 24z m-90 -80 c0 -2 -10 -12 -22 -23 l-23 -19 19 23 c18 21
26 27 26 19z m-3929 -34 c13 -16 12 -17 -3 -4 -10 7 -18 15 -18 17 0 8 8 3 21
-13z m1139 -887 c0 -2 -8 -10 -17 -17 -16 -13 -17 -12 -4 4 13 16 21 21 21 13z
m1160 -20 c0 -2 -9 -6 -20 -9 -11 -3 -18 -1 -14 4 5 9 34 13 34 5z m-1250
-100 c0 -2 -8 -10 -17 -17 -16 -13 -17 -12 -4 4 13 16 21 21 21 13z"/>
<path d="M5674 5311 c-30 -19 -54 -64 -54 -103 0 -35 32 -88 61 -103 15 -8 47
-15 70 -15 33 0 47 6 75 34 30 30 34 40 34 86 0 46 -4 56 -34 86 -28 28 -41
34 -77 34 -26 0 -57 -8 -75 -19z"/>
<path d="M7440 3393 c-17 -22 -20 -35 -14 -68 4 -22 7 -332 8 -688 1 -564 3
-649 16 -657 22 -14 173 -12 192 3 15 10 17 50 20 322 4 291 5 313 26 366 12
30 34 67 50 81 103 97 272 85 326 -24 14 -26 16 -84 16 -378 0 -412 -11 -380
126 -380 58 0 96 5 108 13 17 12 17 37 13 382 -3 310 -7 379 -21 429 -31 106
-76 158 -181 206 -43 19 -66 22 -174 23 -85 0 -126 -4 -129 -12 -2 -6 -10 -11
-18 -11 -8 0 -27 -11 -42 -26 -15 -14 -39 -28 -54 -31 -16 -3 -28 -9 -28 -14
0 -5 -4 -9 -10 -9 -6 0 -10 86 -10 238 l0 239 -25 11 c-14 7 -59 12 -100 12
-68 0 -75 -2 -95 -27z"/>
<path d="M2038 3360 c-17 -16 -18 -62 -18 -693 0 -782 -15 -697 124 -697 130
0 127 -5 126 233 -1 106 -1 206 -1 223 l1 31 188 6 c110 4 213 13 251 22 180
43 289 165 327 364 20 107 8 197 -41 298 -35 71 -111 153 -141 153 -8 0 -14 5
-14 10 0 6 -9 10 -19 10 -11 0 -23 5 -26 10 -3 6 -17 10 -30 10 -13 0 -26 4
-29 9 -10 16 -142 24 -411 26 -240 2 -272 0 -287 -15z m603 -225 c49 -17 84
-44 117 -92 19 -27 22 -44 22 -127 0 -82 -3 -101 -24 -138 -25 -45 -66 -76
-103 -77 -12 -1 -25 -5 -28 -11 -7 -11 -294 -14 -332 -4 l-23 6 0 229 0 229
163 0 c120 0 175 -4 208 -15z"/>
<path d="M4402 3353 c-22 -26 -23 -33 -16 -108 4 -44 6 -105 5 -135 -1 -30 -4
-289 -5 -575 -2 -422 0 -524 11 -542 12 -21 21 -23 106 -23 60 0 99 5 111 13
15 11 17 33 17 217 -1 113 2 217 7 232 l7 27 190 5 c258 7 354 35 450 131 88
88 129 207 123 359 -3 88 -8 110 -35 169 -46 97 -127 174 -218 207 -90 33
-107 35 -340 37 -132 1 -274 5 -315 8 -73 6 -75 6 -98 -22z m600 -215 c59 -17
115 -73 138 -138 21 -57 27 -170 10 -170 -5 0 -10 -9 -10 -20 0 -30 -84 -110
-114 -110 -14 0 -28 -4 -31 -10 -8 -13 -325 -13 -345 0 -12 7 -15 43 -18 179
-3 94 -1 196 3 226 l6 55 161 0 c95 0 177 -5 200 -12z"/>
<path d="M6742 3235 c-19 -22 -22 -37 -22 -117 0 -117 -9 -129 -86 -121 -79 8
-94 -8 -94 -103 0 -47 4 -76 13 -81 6 -4 46 -10 87 -13 l75 -5 3 -285 c1 -169
6 -288 12 -294 6 -6 10 -22 10 -37 0 -73 74 -165 157 -193 26 -10 77 -19 113
-22 69 -6 187 9 203 25 6 6 10 45 9 87 0 99 -7 104 -119 104 -76 0 -86 2 -109
25 l-24 24 2 283 3 283 110 5 c61 3 116 9 123 13 18 12 16 161 -2 176 -9 8
-46 12 -98 11 -46 -1 -95 1 -110 5 l-28 7 0 110 c0 136 -1 137 -121 138 -79 0
-87 -2 -107 -25z"/>
<path d="M5825 3010 c-3 -5 -19 -10 -36 -10 -16 0 -29 -4 -29 -10 0 -5 -8 -10
-17 -10 -10 0 -29 -9 -43 -20 -14 -11 -29 -20 -34 -20 -15 0 -66 -52 -66 -67
0 -7 -4 -13 -10 -13 -5 0 -10 -7 -10 -15 0 -8 -5 -24 -12 -35 -17 -26 0 -71
32 -87 14 -7 55 -13 91 -13 58 0 69 3 93 26 14 15 26 31 26 36 0 5 21 18 46
30 64 28 204 23 249 -8 64 -46 97 -161 57 -197 -15 -14 -36 -16 -132 -11 -187
9 -314 2 -326 -17 -3 -5 -16 -9 -29 -9 -39 0 -135 -104 -135 -145 0 -8 -4 -15
-10 -15 -5 0 -10 -13 -10 -29 0 -15 -5 -42 -11 -60 -11 -32 -8 -58 23 -164 16
-55 95 -130 165 -158 49 -20 77 -23 183 -24 110 0 131 3 175 23 27 12 69 43
92 69 37 40 43 43 43 23 0 -25 29 -91 44 -102 6 -4 41 -8 78 -8 104 0 98 -23
98 360 0 352 -8 439 -51 527 -27 55 -66 103 -85 103 -8 0 -14 5 -14 10 0 6 -8
10 -18 10 -10 0 -22 3 -26 7 -3 4 -23 13 -44 20 -45 15 -338 18 -347 3z m343
-602 c14 -14 16 -94 2 -103 -5 -3 -10 -15 -10 -26 0 -10 -18 -37 -40 -59 -31
-31 -48 -40 -74 -40 -19 0 -38 -4 -41 -10 -9 -14 -72 -12 -123 3 -120 36 -159
141 -82 218 l28 29 164 0 c114 0 168 -4 176 -12z"/>
<path d="M3210 2981 c-5 -11 -10 -28 -10 -39 0 -18 31 -107 51 -144 5 -10 9
-26 9 -36 0 -10 4 -22 8 -27 4 -6 14 -28 21 -50 7 -22 16 -49 21 -60 5 -11 23
-63 40 -115 18 -52 36 -99 41 -104 5 -6 9 -20 9 -32 0 -13 5 -26 10 -29 6 -3
10 -17 10 -30 0 -13 5 -27 10 -30 6 -3 10 -16 10 -29 0 -12 4 -26 8 -32 4 -5
14 -27 21 -49 22 -71 77 -192 91 -200 16 -10 -2 -99 -26 -132 -36 -48 -75 -63
-168 -63 -108 -1 -126 -14 -126 -98 0 -83 12 -92 127 -92 242 0 340 93 468
445 51 140 248 704 296 848 39 114 36 117 -80 117 -78 0 -90 -2 -107 -22 -26
-31 -44 -65 -44 -83 0 -8 -5 -25 -12 -38 -24 -48 -28 -57 -28 -76 0 -11 -4
-23 -10 -26 -5 -3 -10 -19 -10 -35 0 -16 -4 -32 -10 -35 -5 -3 -10 -15 -10
-26 0 -10 -5 -29 -12 -42 -24 -48 -28 -57 -28 -76 0 -11 -4 -23 -10 -26 -5 -3
-10 -22 -10 -41 0 -19 -4 -34 -10 -34 -5 0 -10 -15 -10 -34 0 -19 -4 -38 -10
-41 -5 -3 -10 -17 -10 -31 0 -13 -4 -24 -10 -24 -5 0 -15 -11 -22 -25 -12 -23
-22 2 -132 332 -66 197 -125 363 -132 370 -8 9 -44 13 -108 13 -84 0 -97 -2
-106 -19z"/>
</g>
</svg>
