<?xml version="1.0" standalone="no"?>
<!DOCTYPE svg PUBLIC "-//W3C//DTD SVG 20010904//EN"
 "http://www.w3.org/TR/2001/REC-SVG-20010904/DTD/svg10.dtd">
<svg version="1.0" xmlns="http://www.w3.org/2000/svg"
 width="698.000000pt" height="461.000000pt" viewBox="0 0 698.000000 461.000000"
 preserveAspectRatio="xMidYMid meet">

<g transform="translate(0.000000,461.000000) scale(0.100000,-0.100000)"
fill="#000000" stroke="none">
<path d="M3206 4523 c-4 -4 -47 -11 -94 -15 -165 -14 -207 -20 -217 -29 -5 -5
-19 -9 -32 -9 -28 0 -91 -34 -122 -67 -32 -34 -35 -135 -5 -179 11 -16 25 -40
32 -54 12 -24 104 -152 139 -195 9 -10 22 -30 29 -44 12 -22 11 -27 -6 -43
-11 -10 -24 -18 -30 -18 -5 0 -10 -4 -10 -10 0 -5 -11 -10 -24 -10 -14 0 -28
-4 -31 -10 -3 -5 -17 -10 -31 -10 -13 0 -24 -4 -24 -10 0 -5 -6 -10 -13 -10
-18 0 -67 -24 -67 -32 0 -5 -9 -8 -20 -8 -11 0 -20 -4 -20 -10 0 -5 -9 -10
-20 -10 -11 0 -20 -4 -20 -10 0 -5 -9 -10 -19 -10 -11 0 -21 -3 -23 -7 -4 -10
-57 -42 -80 -50 -10 -3 -18 -9 -18 -14 0 -5 -9 -9 -19 -9 -11 0 -21 -4 -23 -8
-5 -14 -126 -92 -142 -92 -9 0 -16 -4 -16 -10 0 -5 -6 -10 -13 -10 -7 0 -23
-9 -35 -20 -12 -11 -25 -20 -31 -20 -5 0 -22 -13 -38 -30 -15 -16 -31 -30 -35
-30 -9 0 -164 -116 -233 -173 -118 -99 -332 -307 -410 -397 -17 -19 -42 -42
-55 -51 l-25 -17 -200 203 c-188 190 -258 250 -414 355 -65 44 -251 140 -270
140 -6 0 -20 5 -31 10 -11 6 -29 15 -40 20 -11 6 -29 10 -39 10 -11 0 -23 5
-26 10 -3 6 -19 10 -35 10 -16 0 -32 5 -35 10 -9 15 -210 13 -238 -2 -50 -28
-57 -40 -57 -90 0 -26 4 -57 10 -68 5 -11 15 -29 20 -40 16 -32 35 -65 40 -70
6 -6 27 -43 54 -95 12 -22 23 -42 26 -45 6 -6 36 -69 69 -142 56 -126 64 -144
71 -163 4 -11 17 -41 29 -67 12 -26 21 -52 21 -58 0 -6 4 -18 9 -28 15 -29 29
-65 42 -107 7 -22 17 -44 21 -49 4 -6 8 -22 8 -37 0 -15 4 -30 9 -33 16 -10
23 -79 28 -258 2 -120 0 -178 -7 -178 -5 0 -10 -20 -10 -45 0 -25 -4 -45 -10
-45 -5 0 -10 -18 -10 -40 0 -22 -4 -40 -10 -40 -5 0 -10 -13 -10 -30 0 -16 -4
-30 -10 -30 -5 0 -10 -13 -10 -29 0 -17 -4 -33 -10 -36 -5 -3 -10 -15 -10 -26
0 -10 -4 -27 -9 -37 -5 -9 -18 -37 -29 -62 -46 -105 -107 -226 -122 -245 -10
-11 -23 -35 -31 -53 -8 -17 -17 -32 -21 -32 -5 0 -8 -6 -8 -13 0 -7 -9 -23
-20 -35 -11 -12 -20 -28 -20 -37 0 -8 -4 -15 -8 -15 -5 0 -15 -12 -23 -27 -8
-16 -16 -30 -19 -33 -3 -3 -15 -26 -28 -51 -21 -42 -33 -141 -19 -156 3 -2 23
-9 44 -14 180 -42 481 52 764 239 151 99 222 161 406 350 l162 166 123 -125
c292 -296 516 -463 888 -662 41 -22 102 -54 135 -72 73 -40 308 -140 365 -155
31 -8 40 -15 36 -26 -3 -9 -6 -23 -6 -32 0 -9 -22 -39 -50 -67 -27 -27 -49
-54 -50 -58 0 -5 -13 -21 -28 -35 -15 -15 -39 -43 -52 -62 -13 -19 -27 -37
-31 -40 -21 -16 -49 -86 -49 -124 0 -36 5 -49 29 -68 65 -55 225 -78 546 -78
245 0 345 10 573 56 235 47 404 105 613 209 139 70 251 142 344 221 65 56 79
62 195 97 448 135 827 345 1184 655 234 204 378 360 587 638 197 261 243 356
206 421 -21 37 -178 259 -283 402 -112 150 -379 429 -537 558 -251 207 -460
340 -687 436 -19 8 -60 26 -90 40 -30 13 -87 35 -125 47 -39 12 -78 26 -87 31
-10 5 -27 9 -38 9 -11 0 -28 4 -38 9 -9 5 -44 17 -77 26 -54 16 -71 28 -165
120 -97 94 -214 185 -239 185 -6 0 -11 3 -11 8 0 4 -10 12 -23 18 -152 79
-184 94 -199 94 -9 0 -19 4 -22 8 -4 7 -51 23 -182 63 -17 5 -40 9 -52 9 -11
0 -23 4 -26 9 -3 5 -20 11 -38 14 -18 3 -53 11 -78 17 -111 28 -183 41 -330
61 -99 14 -413 22 -424 12z m1161 -469 c-3 -3 -12 -4 -19 -1 -8 3 -5 6 6 6 11
1 17 -2 13 -5z m1524 -851 c13 -16 12 -17 -3 -4 -10 7 -18 15 -18 17 0 8 8 3
21 -13z m100 -80 c13 -16 12 -17 -3 -4 -17 13 -22 21 -14 21 2 0 10 -8 17 -17z
m-3921 -36 c0 -2 -10 -12 -22 -23 l-23 -19 19 23 c18 21 26 27 26 19z m3990
-22 c13 -14 21 -25 18 -25 -2 0 -15 11 -28 25 -13 14 -21 25 -18 25 2 0 15
-11 28 -25z m-5299 -2 c13 -16 12 -17 -3 -4 -10 7 -18 15 -18 17 0 8 8 3 21
-13z m60 -50 c13 -16 12 -17 -3 -4 -10 7 -18 15 -18 17 0 8 8 3 21 -13z m1179
14 c0 -2 -12 -14 -27 -28 l-28 -24 24 28 c23 25 31 32 31 24z m-1090 -92 c13
-14 21 -25 18 -25 -2 0 -15 11 -28 25 -13 14 -21 25 -18 25 2 0 15 -11 28 -25z
m70 -70 c19 -19 32 -35 29 -35 -3 0 -20 16 -39 35 -19 19 -32 35 -29 35 3 0
20 -16 39 -35z m5261 18 c13 -16 12 -17 -3 -4 -10 7 -18 15 -18 17 0 8 8 3 21
-13z m-4421 -26 c0 -2 -12 -14 -27 -28 l-28 -24 24 28 c23 25 31 32 31 24z
m4461 -14 c13 -16 12 -17 -3 -4 -10 7 -18 15 -18 17 0 8 8 3 21 -13z m-5240
-40 c13 -16 12 -17 -3 -4 -10 7 -18 15 -18 17 0 8 8 3 21 -13z m3808 -38 c81
-45 138 -124 176 -245 22 -72 32 -334 16 -450 -14 -110 -45 -200 -85 -253 -38
-51 -113 -103 -169 -118 -29 -8 -189 -12 -496 -13 l-454 -2 -23 -28 c-31 -36
-31 -80 1 -111 l24 -25 289 0 290 0 4 -55 c3 -31 2 -93 -2 -139 -13 -160 -80
-242 -237 -289 -58 -17 -106 -20 -332 -24 -289 -6 -353 1 -434 45 -60 32 -102
79 -136 152 l-26 55 0 335 c0 322 1 337 22 382 29 63 96 134 158 166 l50 27
390 5 c377 5 392 6 448 29 175 69 249 202 264 475 l6 118 102 -4 c88 -4 108
-8 154 -33z m1551 -50 c13 -14 21 -25 18 -25 -2 0 -15 11 -28 25 -13 14 -21
25 -18 25 2 0 15 -11 28 -25z m-4710 2 c0 -2 -15 -16 -32 -33 l-33 -29 29 33
c28 30 36 37 36 29z m-465 -117 c10 -11 16 -20 13 -20 -3 0 -13 9 -23 20 -10
11 -16 20 -13 20 3 0 13 -9 23 -20z m5286 -27 c13 -16 12 -17 -3 -4 -10 7 -18
15 -18 17 0 8 8 3 21 -13z m-4971 -16 c0 -2 -10 -12 -22 -23 l-23 -19 19 23
c18 21 26 27 26 19z m5001 -24 c13 -16 12 -17 -3 -4 -10 7 -18 15 -18 17 0 8
8 3 21 -13z m-5230 -30 c13 -16 12 -17 -3 -4 -10 7 -18 15 -18 17 0 8 8 3 21
-13z m-231 -293 c0 -5 -2 -10 -4 -10 -3 0 -8 5 -11 10 -3 6 -1 10 4 10 6 0 11
-4 11 -10z m485 -360 c10 -11 16 -20 13 -20 -3 0 -13 9 -23 20 -10 11 -16 20
-13 20 3 0 13 -9 23 -20z m-355 -23 c0 -2 -10 -12 -22 -23 l-23 -19 19 23 c18
21 26 27 26 19z m5130 -20 c0 -2 -15 -16 -32 -33 l-33 -29 29 33 c28 30 36 37
36 29z m-5190 -51 c0 -2 -8 -10 -17 -17 -16 -13 -17 -12 -4 4 13 16 21 21 21
13z m-40 -39 c0 -2 -10 -12 -22 -23 l-23 -19 19 23 c18 21 26 27 26 19z m5150
0 c0 -1 -33 -34 -72 -72 l-73 -70 70 73 c64 67 75 77 75 69z m-4524 -49 l29
-33 -32 29 c-31 28 -38 36 -30 36 2 0 16 -15 33 -32z m64 -63 c13 -14 21 -25
18 -25 -2 0 -15 11 -28 25 -13 14 -21 25 -18 25 2 0 15 -11 28 -25z m51 -52
c13 -16 12 -17 -3 -4 -10 7 -18 15 -18 17 0 8 8 3 21 -13z m60 -60 c13 -16 12
-17 -3 -4 -10 7 -18 15 -18 17 0 8 8 3 21 -13z m4119 3 c0 -2 -8 -10 -17 -17
-16 -13 -17 -12 -4 4 13 16 21 21 21 13z m-1710 -1010 c0 -2 -9 -6 -20 -9 -11
-3 -18 -1 -14 4 5 9 34 13 34 5z m-1250 -100 c0 -2 -8 -10 -17 -17 -16 -13
-17 -12 -4 4 13 16 21 21 21 13z"/>
<path d="M4074 1371 c-30 -19 -54 -64 -54 -103 0 -35 32 -88 61 -103 15 -8 47
-15 70 -15 33 0 47 6 75 34 30 30 34 40 34 86 0 46 -4 56 -34 86 -28 28 -41
34 -77 34 -26 0 -57 -8 -75 -19z"/>
</g>
</svg>
