<svg xmlns="http://www.w3.org/2000/svg" width="500" height="350" viewBox="0 0 500 350">
  <defs>
    <linearGradient id="fishBodyGrad" x1="0%" y1="50%" x2="100%" y2="50%">
      <stop offset="0%" style="stop-color:#4facfe;stop-opacity:1" />
      <stop offset="100%" style="stop-color:#00f2fe;stop-opacity:1" />
    </linearGradient>
    <style>
      .python-blue { fill: #3776AB; }
      .python-yellow { fill: #FFD43B; }
      .text-style { font-family: 'Helvetica Neue', Helvetica, Arial, sans-serif; font-weight: bold; fill: #333; }
    </style>
  </defs>

  <g transform="translate(20, 20)">
      
    <path d="M 40,150 
             C 40,80 180,30 320,80 
             C 350,90 380,110 400,130
             L 460,80 
             L 460,220
             L 400,170
             C 380,190 350,210 320,220
             C 180,270 40,220 40,150 
             Z" 
          fill="url(#fishBodyGrad)" stroke="#2c7da0" stroke-width="3" opacity="0.9"/>
    
    <circle cx="80" cy="130" r="8" fill="white" stroke="#2c7da0" stroke-width="2"/>
    <circle cx="82" cy="130" r="3" fill="#333"/>

    <g transform="translate(160, 95) scale(0.8)">
        <path class="python-blue" d="M 49.999 10.755 C 35.521 10.755 23.656 16.762 23.656 25.995 L 23.656 31.695 L 50.841 31.695 L 50.841 35.985 L 23.656 35.985 L 23.656 46.831 C 23.656 60.378 39.459 67.696 54.031 60.178 C 57.585 58.325 62.792 54.501 63.262 54.118 C 63.949 53.586 64.231 52.614 64.231 51.538 L 64.231 42.981 L 62.75 42.981 C 55.691 42.981 50.841 38.132 50.841 31.073 L 50.841 25.995 C 50.841 18.936 56.564 13.984 63.622 13.984 L 68.903 13.984 L 68.903 11.894 C 68.903 6.195 62.037 1.846 55.685 0.785 C 53.819 0.475 51.912 10.755 49.999 10.755 Z M 42.15 22.001 C 44.077 22.001 45.637 23.564 45.637 25.488 C 45.637 27.415 44.077 28.975 42.15 28.975 C 40.226 28.975 38.663 27.415 38.663 25.488 C 38.663 23.564 40.226 22.001 42.15 22.001 Z"/>
        <path class="python-yellow" d="M 74.94 90.67 C 89.418 90.67 101.283 84.663 101.283 75.43 L 101.283 69.73 L 74.098 69.73 L 74.098 65.44 L 101.283 65.44 L 101.283 54.593 C 101.283 41.047 85.48 33.729 70.908 41.247 C 67.354 43.1 62.147 46.924 61.677 47.307 C 60.99 47.838 60.708 48.811 60.708 49.886 L 60.708 58.443 L 62.19 58.443 C 69.249 58.443 74.098 63.293 74.098 70.352 L 74.098 75.43 C 74.098 82.489 68.375 87.441 61.317 87.441 L 56.036 87.441 L 56.036 89.53 C 56.036 95.23 62.902 99.579 69.254 100.641 C 71.12 100.95 73.027 90.67 74.94 90.67 Z M 82.789 79.425 C 80.862 79.425 79.302 77.862 79.302 75.938 C 79.302 74.011 80.862 72.45 82.789 72.45 C 84.713 72.45 86.275 74.011 86.275 75.938 C 86.275 77.862 84.713 79.425 82.789 79.425 Z"/>
    </g>
  </g>

  <text x="250" y="320" text-anchor="middle" font-size="48" class="text-style">PyPath</text>
</svg>